/* XPM */
static char *result[] = {
/* columns rows colors chars-per-pixel */
"64 64 6 1 ",
"  c #6E6D6D",
". c gray38",
"X c gray65",
"o c gray32",
"O c gray71",
"+ c #888788",
/* pixels */
"    ....XXXXXXXXoooo........XXXXOOOOXXXX++++....++++OOOOXXXX++++",
"    ....XXXXXXXXoooo........XXXXOOOOXXXX++++....++++OOOOXXXX++++",
"    ....XXXXXXXXoooo........XXXXOOOOXXXX++++....++++OOOOXXXX++++",
"    ....XXXXXXXXoooo........XXXXOOOOXXXX++++....++++OOOOXXXX++++",
"....XXXXOOOO++++++++ooooOOOOOOOOXXXX++++++++oooo....++++    ++++",
"....XXXXOOOO++++++++ooooOOOOOOOOXXXX++++++++oooo....++++    ++++",
"....XXXXOOOO++++++++ooooOOOOOOOOXXXX++++++++oooo....++++    ++++",
"....XXXXOOOO++++++++ooooOOOOOOOOXXXX++++++++oooo....++++    ++++",
"....XXXX++++XXXX    ....XXXX++++++++XXXX    ....oooo....++++    ",
"....XXXX++++XXXX    ....XXXX++++++++XXXX    ....oooo....++++    ",
"....XXXX++++XXXX    ....XXXX++++++++XXXX    ....oooo....++++    ",
"....XXXX++++XXXX    ....XXXX++++++++XXXX    ....oooo....++++    ",
"........++++    ........++++    ++++    ....++++XXXX++++....oooo",
"........++++    ........++++    ++++    ....++++XXXX++++....oooo",
"........++++    ........++++    ++++    ....++++XXXX++++....oooo",
"........++++    ........++++    ++++    ....++++XXXX++++....oooo",
"oooo    ....++++OOOOXXXX....++++........OOOOXXXXXXXXXXXX++++....",
"oooo    ....++++OOOOXXXX....++++........OOOOXXXXXXXXXXXX++++....",
"oooo    ....++++OOOOXXXX....++++........OOOOXXXXXXXXXXXX++++....",
"oooo    ....++++OOOOXXXX....++++........OOOOXXXXXXXXXXXX++++....",
"OOOO    XXXXOOOO++++++++    ....oooo++++++++OOOOXXXX++++    ++++",
"OOOO    XXXXOOOO++++++++    ....oooo++++++++OOOOXXXX++++    ++++",
"OOOO    XXXXOOOO++++++++    ....oooo++++++++OOOOXXXX++++    ++++",
"OOOO    XXXXOOOO++++++++    ....oooo++++++++OOOOXXXX++++    ++++",
"XXXX++++....++++XXXX++++++++    ........    XXXX++++    ....OOOO",
"XXXX++++....++++XXXX++++++++    ........    XXXX++++    ....OOOO",
"XXXX++++....++++XXXX++++++++    ........    XXXX++++    ....OOOO",
"XXXX++++....++++XXXX++++++++    ........    XXXX++++    ....OOOO",
"++++++++        ++++++++    ....++++OOOOXXXX....    ++++....++++",
"++++++++        ++++++++    ....++++OOOOXXXX....    ++++....++++",
"++++++++        ++++++++    ....++++OOOOXXXX....    ++++....++++",
"++++++++        ++++++++    ....++++OOOOXXXX....    ++++....++++",
"    ....OOOOXXXX        ....++++OOOO++++++++++++........oooo    ",
"    ....OOOOXXXX        ....++++OOOO++++++++++++........oooo    ",
"    ....OOOOXXXX        ....++++OOOO++++++++++++........oooo    ",
"    ....OOOOXXXX        ....++++OOOO++++++++++++........oooo    ",
"....OOOOXXXX++++    ++++        ++++++++....    ....++++XXXX....",
"....OOOOXXXX++++    ++++        ++++++++....    ....++++XXXX....",
"....OOOOXXXX++++    ++++        ++++++++....    ....++++XXXX....",
"....OOOOXXXX++++    ++++        ++++++++....    ....++++XXXX....",
"++++    ++++    ++++........oooo....        ....ooooXXXXXXXXOOOO",
"++++    ++++    ++++........oooo....        ....ooooXXXXXXXXOOOO",
"++++    ++++    ++++........oooo....        ....ooooXXXXXXXXOOOO",
"++++    ++++    ++++........oooo....        ....ooooXXXXXXXXOOOO",
"++++        ........    ++++OOOOXXXX........oooo++++OOOOOOOO++++",
"++++        ........    ++++OOOOXXXX........oooo++++OOOOOOOO++++",
"++++        ........    ++++OOOOXXXX........oooo++++OOOOOOOO++++",
"++++        ........    ++++OOOOXXXX........oooo++++OOOOOOOO++++",
"    ++++OOOOXXXX    ....OOOOXXXX++++XXXX    ....++++++++    ++++",
"    ++++OOOOXXXX    ....OOOOXXXX++++XXXX    ....++++++++    ++++",
"    ++++OOOOXXXX    ....OOOOXXXX++++XXXX    ....++++++++    ++++",
"    ++++OOOOXXXX    ....OOOOXXXX++++XXXX    ....++++++++    ++++",
"....OOOOXXXX++++++++....XXXX++++    ++++++++    ........++++    ",
"....OOOOXXXX++++++++....XXXX++++    ++++++++    ........++++    ",
"....OOOOXXXX++++++++....XXXX++++    ++++++++    ........++++    ",
"....OOOOXXXX++++++++....XXXX++++    ++++++++    ........++++    ",
"XXXXXXXX++++    ++++    ....    ++++++++    ....XXXX++++........",
"XXXXXXXX++++    ++++    ....    ++++++++    ....XXXX++++........",
"XXXXXXXX++++    ++++    ....    ++++++++    ....XXXX++++........",
"XXXXXXXX++++    ++++    ....    ++++++++    ....XXXX++++........",
"....++++........    ++++    ....    ........++++OOOOXXXX++++    ",
"....++++........    ++++    ....    ........++++OOOOXXXX++++    ",
"....++++........    ++++    ....    ........++++OOOOXXXX++++    ",
"....++++........    ++++    ....    ........++++OOOOXXXX++++    "
};
