/* XPM */
static char *result[] = {
/* columns rows colors chars-per-pixel */
"64 64 7 1 ",
"  c #8B898B",
". c #9C999C",
"X c #5A595A",
"o c gray50",
"O c #787678",
"+ c #6A6D6A",
"@ c gray39",
/* pixels */
"    ............................................            XXXX",
"    ............................................            XXXX",
"    ............................................            XXXX",
"    ............................................            XXXX",
"....oooo    oooo                    oooooooooooooooooooo    XXXX",
"....oooo    oooo                    oooooooooooooooooooo    XXXX",
"....oooo    oooo                    oooooooooooooooooooo    XXXX",
"....oooo    oooo                    oooooooooooooooooooo    XXXX",
"....    oooo    oooooooooooooooooooooooo        OOOOooooooooXXXX",
"....    oooo    oooooooooooooooooooooooo        OOOOooooooooXXXX",
"....    oooo    oooooooooooooooooooooooo        OOOOooooooooXXXX",
"....    oooo    oooooooooooooooooooooooo        OOOOooooooooXXXX",
"....ooooOOOOoooo        ooooOOOOoooo    ooooOOOOooooOOOOOOOOXXXX",
"....ooooOOOOoooo        ooooOOOOoooo    ooooOOOOooooOOOOOOOOXXXX",
"....ooooOOOOoooo        ooooOOOOoooo    ooooOOOOooooOOOOOOOOXXXX",
"....ooooOOOOoooo        ooooOOOOoooo    ooooOOOOooooOOOOOOOOXXXX",
"....OOOO++++OOOOOOOOoooo    ooooooooOOOOOOOOooooOOOO++++ooooXXXX",
"....OOOO++++OOOOOOOOoooo    ooooooooOOOOOOOOooooOOOO++++ooooXXXX",
"....OOOO++++OOOOOOOOoooo    ooooooooOOOOOOOOooooOOOO++++ooooXXXX",
"....OOOO++++OOOOOOOOoooo    ooooooooOOOOOOOOooooOOOO++++ooooXXXX",
"    OOOO++++ooooooooOOOOOOOOOOOOOOOOoooo    OOOO++++ooooOOOOXXXX",
"    OOOO++++ooooooooOOOOOOOOOOOOOOOOoooo    OOOO++++ooooOOOOXXXX",
"    OOOO++++ooooooooOOOOOOOOOOOOOOOOoooo    OOOO++++ooooOOOOXXXX",
"    OOOO++++ooooooooOOOOOOOOOOOOOOOOoooo    OOOO++++ooooOOOOXXXX",
"++++++++++++++++++++++++++++++++++++++++++++++++++++++++++++XXXX",
"++++++++++++++++++++++++++++++++++++++++++++++++++++++++++++XXXX",
"++++++++++++++++++++++++++++++++++++++++++++++++++++++++++++XXXX",
"++++++++++++++++++++++++++++++++++++++++++++++++++++++++++++XXXX",
"@@@@@@@@XXXXXXXX@@@@@@@@XXXXXXXXXXXX@@@@@@@@@@@@@@@@@@@@@@@@@@@@",
"@@@@@@@@XXXXXXXX@@@@@@@@XXXXXXXXXXXX@@@@@@@@@@@@@@@@@@@@@@@@@@@@",
"@@@@@@@@XXXXXXXX@@@@@@@@XXXXXXXXXXXX@@@@@@@@@@@@@@@@@@@@@@@@@@@@",
"@@@@@@@@XXXXXXXX@@@@@@@@XXXXXXXXXXXX@@@@@@@@@@@@@@@@@@@@@@@@@@@@",
"........................    XXXX    ............................",
"........................    XXXX    ............................",
"........................    XXXX    ............................",
"........................    XXXX    ............................",
"OOOO                ooooooooXXXX....    oooo                oooo",
"OOOO                ooooooooXXXX....    oooo                oooo",
"OOOO                ooooooooXXXX....    oooo                oooo",
"OOOO                ooooooooXXXX....    oooo                oooo",
"    oooooooo    ooooooooOOOOXXXX....ooooOOOO    OOOO    oooooooo",
"    oooooooo    ooooooooOOOOXXXX....ooooOOOO    OOOO    oooooooo",
"    oooooooo    ooooooooOOOOXXXX....ooooOOOO    OOOO    oooooooo",
"    oooooooo    ooooooooOOOOXXXX....ooooOOOO    OOOO    oooooooo",
"oooo        ooooooooOOOO++++XXXX....OOOOooooOOOOoooooooooooo    ",
"oooo        ooooooooOOOO++++XXXX....OOOOooooOOOOoooooooooooo    ",
"oooo        ooooooooOOOO++++XXXX....OOOOooooOOOOoooooooooooo    ",
"oooo        ooooooooOOOO++++XXXX....OOOOooooOOOOoooooooooooo    ",
"ooooooooooooooooOOOOooooOOOOXXXX    OOOOOOOOoooo    ooooOOOOOOOO",
"ooooooooooooooooOOOOooooOOOOXXXX    OOOOOOOOoooo    ooooOOOOOOOO",
"ooooooooooooooooOOOOooooOOOOXXXX    OOOOOOOOoooo    ooooOOOOOOOO",
"ooooooooooooooooOOOOooooOOOOXXXX    OOOOOOOOoooo    ooooOOOOOOOO",
"OOOOOOOO++++OOOO++++++++OOOOXXXX    ooooooooOOOOOOOOooooooooOOOO",
"OOOOOOOO++++OOOO++++++++OOOOXXXX    ooooooooOOOOOOOOooooooooOOOO",
"OOOOOOOO++++OOOO++++++++OOOOXXXX    ooooooooOOOOOOOOooooooooOOOO",
"OOOOOOOO++++OOOO++++++++OOOOXXXX    ooooooooOOOOOOOOooooooooOOOO",
"++++++++++++++++++++++++++++XXXX++++++++++++++++++++++++++++++++",
"++++++++++++++++++++++++++++XXXX++++++++++++++++++++++++++++++++",
"++++++++++++++++++++++++++++XXXX++++++++++++++++++++++++++++++++",
"++++++++++++++++++++++++++++XXXX++++++++++++++++++++++++++++++++",
"@@@@@@@@@@@@@@@@@@@@@@@@XXXXXXXXXXXXXXXX@@@@@@@@@@@@@@@@@@@@@@@@",
"@@@@@@@@@@@@@@@@@@@@@@@@XXXXXXXXXXXXXXXX@@@@@@@@@@@@@@@@@@@@@@@@",
"@@@@@@@@@@@@@@@@@@@@@@@@XXXXXXXXXXXXXXXX@@@@@@@@@@@@@@@@@@@@@@@@",
"@@@@@@@@@@@@@@@@@@@@@@@@XXXXXXXXXXXXXXXX@@@@@@@@@@@@@@@@@@@@@@@@"
};
