/* XPM */
static char *result[] = {
/* columns rows colors chars-per-pixel */
"64 64 251 2 ",
"   c #06080B",
".  c #060A12",
"X  c #0B0D12",
"o  c #090E1A",
"O  c #0C1214",
"+  c #0D141A",
"@  c #06111A",
"#  c #12161B",
"$  c #141B1C",
"%  c #161819",
"&  c #170F0D",
"*  c #271B17",
"=  c #2E1611",
"-  c #30221D",
";  c #0C1B28",
":  c #141B22",
">  c #171E28",
",  c #0E1C34",
"<  c #231E2B",
"1  c #1B2325",
"2  c #14222D",
"3  c #1B242A",
"4  c #1B2628",
"5  c #1A2432",
"6  c #1A2937",
"7  c #122831",
"8  c #232425",
"9  c #232A2C",
"0  c #272829",
"q  c #352C29",
"w  c #272D34",
"e  c #2B3334",
"r  c #2C3439",
"t  c #293538",
"y  c #333335",
"u  c #323B3C",
"i  c #393839",
"p  c #35332D",
"a  c #1E221F",
"s  c #46281D",
"d  c #48342B",
"f  c #5D3D2C",
"g  c #543728",
"h  c #463B36",
"j  c #4F322A",
"k  c #683931",
"l  c #631B14",
"z  c #2C4F35",
"x  c #2A5735",
"c  c #45443C",
"v  c #58453A",
"b  c #595938",
"n  c #514A2F",
"m  c #674536",
"M  c #774939",
"N  c #7B513D",
"B  c #67663C",
"V  c #15344C",
"C  c #2B3A47",
"Z  c #373D43",
"A  c #362A42",
"S  c #533C45",
"D  c #673C43",
"F  c #3A4344",
"G  c #3A454A",
"H  c #374857",
"J  c #347545",
"K  c #144D6E",
"L  c #305167",
"P  c #474A49",
"I  c #574B46",
"U  c #57554A",
"Y  c #444C54",
"T  c #4A5457",
"R  c #565958",
"E  c #514D51",
"W  c #674946",
"Q  c #67564A",
"!  c #785849",
"~  c #665B53",
"^  c #765753",
"/  c #734B4A",
"(  c #51695A",
")  c #686844",
"_  c #78764A",
"`  c #6A665A",
"'  c #7B6456",
"]  c #767453",
"[  c #465967",
"{  c #515D67",
"}  c #4D6367",
"|  c #576668",
" . c #556D77",
".. c #666967",
"X. c #7B7368",
"o. c #677578",
"O. c #6F736F",
"+. c #85503C",
"@. c #885947",
"#. c #965A49",
"$. c #8D534E",
"%. c #89644B",
"&. c #96634B",
"*. c #8A6453",
"=. c #8C6B54",
"-. c #876657",
";. c #936D5B",
":. c #976856",
">. c #94735D",
",. c #9B745C",
"<. c #847A54",
"1. c #A56958",
"2. c #A7765B",
"3. c #B27059",
"4. c #87776B",
"5. c #9C7B64",
"6. c #997766",
"7. c #8F756C",
"8. c #A37C64",
"9. c #AA7C65",
"0. c #A87967",
"q. c #B77966",
"w. c #AA716B",
"e. c #A2594C",
"r. c #C37969",
"t. c #CA7B77",
"y. c #C26A53",
"u. c #843B35",
"i. c #26853F",
"p. c #2C8C44",
"a. c #298842",
"s. c #328D47",
"d. c #2E9349",
"f. c #31944A",
"g. c #319449",
"h. c #3E9958",
"j. c #7A825A",
"k. c #5F8B69",
"l. c #868456",
"z. c #81804E",
"x. c #8B8478",
"c. c #98857B",
"v. c #9A806D",
"b. c #A4826B",
"n. c #AB846B",
"m. c #AA8468",
"M. c #B3846A",
"N. c #B88769",
"B. c #AA8975",
"V. c #B48C73",
"C. c #B88976",
"Z. c #AC927B",
"A. c #B9937A",
"S. c #B98159",
"D. c #C48869",
"F. c #C9936C",
"G. c #C78A76",
"H. c #C99777",
"J. c #D49979",
"K. c #D28E6E",
"L. c #D8A17D",
"P. c #1A658F",
"I. c #557488",
"U. c #6D7B88",
"Y. c #4E7AA4",
"T. c #158EBA",
"R. c #2E90AD",
"E. c #74888C",
"W. c #6887AA",
"Q. c #508896",
"!. c #038EC7",
"~. c #0193CB",
"^. c #0697CB",
"/. c #019BD4",
"(. c #019ED9",
"). c #0498D3",
"_. c #1299CB",
"`. c #01A3DC",
"'. c #01A9DE",
"]. c #0AA2D6",
"[. c #12A8D3",
"{. c #02A6E2",
"}. c #01ABE5",
"|. c #01AEE9",
" X c #0BACE3",
".X c #02B1E7",
"XX c #01B2EC",
"oX c #11ACE3",
"OX c #249CC5",
"+X c #989489",
"@X c #959B99",
"#X c #8C8E8B",
"$X c #A58C84",
"%X c #A89689",
"&X c #B79987",
"*X c #A89D91",
"=X c #B9968E",
"-X c #9DA196",
";X c #B9A28D",
":X c #A9A395",
">X c #B4A494",
",X c #B8A99B",
"<X c #B4AA97",
"1X c #93A7AD",
"2X c #A9ACA6",
"3X c #B5ADA2",
"4X c #BCB3A4",
"5X c #BBB6A9",
"6X c #B5BBB9",
"7X c #A8B2B5",
"8X c #C99984",
"9X c #D69982",
"0X c #CA9C9B",
"qX c #E59D88",
"wX c #C8A38A",
"eX c #D7A586",
"rX c #D5AA94",
"tX c #D7B39A",
"yX c #C7AB98",
"uX c #E7B498",
"iX c #E6A78D",
"pX c #C3B4A3",
"aX c #C5BBAD",
"sX c #C7BAAA",
"dX c #C7BEB3",
"fX c #D3B7AC",
"gX c #E4B3A9",
"hX c #BDC1BB",
"jX c #CBC3B4",
"kX c #CAC6BB",
"lX c #D5C8B6",
"zX c #D4C5B2",
"xX c #E7C9B5",
"cX c #9CB4C4",
"vX c #BAC5C7",
"bX c #93C9F0",
"nX c #C4C8C5",
"mX c #D6CDC2",
"MX c #DDD5CA",
"NX c #D9D4C8",
"BX c #D6D9D7",
"VX c #CAD1D2",
"CX c #E2DBCF",
"ZX c #E1D6C9",
"AX c #E4DDD2",
"SX c #DCE2DE",
"DX c #E8E3D7",
"FX c #DDE6E3",
"GX c #D8E4E4",
"HX c #E2E9E6",
"JX c #CAD9E5",
/* pixels */
"bXbXbXbXbXW.p 1 % O + # X X X X X X X . .   . . .   .   . . . . . w Z Y o o # # ; : : > > , , > 5 < < 5 > w , < 5 5 6 5 6 , : A ",
"; bXbXbXbXU.O { Y t ..{ O [ T P X o X + + o + + # : : : 1 7 2 2 3 3 C w > 0 5 w 5 w 5 5 5 w 6 A 6 V 6 V V V V V V K K K P.P.2 | ",
"9 [ , [ C U.# : 4 > 2 1 3 1 3 2 > 2 > 2 > , 2 , 7 V V K K K P.P.P.T.T.!._.(.oX X X|.|.|.|.|.|.|.}.{.{.{.{.(.(.(.).).).).~.!.6 E.",
"H H  .[ C [ , _.].oX'. X}.|.|.|.|.XXXXXX|.XXXXXXXXXXXX.XXXXXXXXXXXXX|.|.|.|.|.|.|.|.{.}.|.{.{.{.}.{.{.{.{.`.(.(.(.).).).~.T.6 1X",
"6 C I.L E.#X. {.|.{.|.|.|.|.|.|.|.|.XXXXXXXXXXXXXXXXXXXXXXXXXXXXXXXX|.|.|.|.}.|.}.|.}.|.}.|.}.{.{.{.{.{.`.`.(.(./.)./.~.~.K 6 E.",
"; , A pX[ L w (.}.}.|.|.|.|.XX|.|.XXXXXXXXXXXXXXXXXXXXXXXXXXXXXXXX|.|.|.|.|.}.}.}.}.{.{.{.{.{.'.{.{.`.`.(.(.(./.).).~.~.!., 6 E.",
"  o y ^ JXJXvX!.{.|.}.|.|.|.|.|.|.|.XXXXXXXX.X.XXXXXXX|.XXXXXX|.XX|.|.}.|.}.|.}.}.}.{.{.{.{.`.(.(.`.(.`.(.(.).).~.~.~.~.!.2 6 cX",
"[ > [ { ..{ Y K }.{.}.}.}.|.|.|.|.|.|.|..XXX|.|.XXXXXXXXXXXX|.|.|.|.|.|.{.|.}.}.}.{.{.{.`.{.`.`.`.(.(.(.(./.).).~.~.~.!.!.2 6 Q.",
"o , 6 L [ r : . }.{.}.}.{.}.|.}.}.|.|.|.|.|.|.|.}.|.|..X|..X}..X|.|.}.|.|.}.}.}.{.{.{.{.`.(.`.`.`.(./.(././.^.~.~.~.~.!.P.2 5 Y.",
", o o C V > 9   {.{.}.'.}.}.}.}.}.}.{.|.}.}.|.}.|.|.|.|.|.}.|.}.|.|.}.}.}.{.{.}.{.{.{.{.`.`.(.(././.`./././.^.~.~.~.~.!.K ; 5 6 ",
"L P.P.< P.< >   _.{.}.}.}.'.'.'.'.'.{.}.}.}.}.}.}.|..X|.|.|..X.X}.|.|.|.}.}.{.}.{.'.`.`.`.(.`./.`./././.^./.~.~.!.!.~.!., 2 5 6 ",
"# o I.I. .< .   P.'.}.'.'.`.}.'.}.{.}.}.}.}.}.}.'.}.}.}.}.|..X.X}.}.}.}.}.}.}.}.{.{.`.(.`./.].`.(././././.^.~.!.!.~.~.!.[ 2 2 7 ",
"# o w I.I.V 5   ; '.'.'.'.'.'.'.'.'.'.'.'.'.'.}.}.}.}..X.X.X.X.X|.|.|.}.}.}.}.'.'.'.`.`.`.`.`././.^.).)./.^.^.T.~.~.!.T.2 2 7 2 ",
"< . . U.I.I.I.L $ ].'.'.`.'.'.`.'.'.'.}.}.'.}.}.}.}.'..X.X.X.X.X|.|.|.|.}.}.}.'.{.'.`.`.`.].[.R.Q.k.X.) o.I.I.R.R.T.!.P., 2 5 2 ",
"Z + . [ W.W.U.U.P Q.OXR.T.].OXT.'.[._.'.'.'.'.'.'.'..X'..X.X.X.X|..X.X|.|. X{.[.OXQ.k.l.<.b _ ) ] j.] U } } [ } [ } } 6 7 2 t 2 ",
"r o o , W.U.U. .R P c 9 P T | y P P OX'.{.'.'.'..X.X.X.X.X.XXXXX.X.X|.k.j._ l.l.B b b b n n ) ) ) ) _ ..} | [ [ } } [ V Y.; , 2 ",
": Z : q O.Q { E p - a h R R T i h I R P | '..X.XQ.j. .o.k.I..XXX.X.X Xb _ B z.B l._ _ _ _ l.j.B c j...} { [ T | #XU.{ w w ; ; ; ",
"X e 3 ) R - % & * * - q - P U I E i U Q ~ | | | ] z.( ( | } |  .| | ( B b b b B n _ _ _ l.l.) ] ` F i z i e i i Z ..U.#XH w ; ; ",
"  # F # C I.Y & * = s j = - s - d p 8 h ) X.o. .O.<.o.o.E.k. .} | ( ( j.B _ B ) ) b B b b U c U y y y 0 q q p e 0 S H r R O., > ",
"    y c Z S q & = M M +.+.+.k k f k = * p ` O.` h.l.} T } H h.g.g.g.i.z.l.<.l.B l.l._ _ ) ( r i p v >.9.9.0.;.W h y Z C w r ..G ",
"    8 P h 8 - f M N.1.1.3.3.&.#.#.@.j & - v ` ` ( g.f.d.g.d.d.d.g.g.f.f.d.g.s.s.f.s.s.J t 9 y >.H.L.L.H.H.J.H.6.Q P y A Z > > ..",
"O % % i y f ;.:.9.0.:.G.9X8Xq.3.q.3.#.g g E h ` ~ s.g.f.g.d.d.d.g.g.f.f.g.d.h.p.g.p.p.t 8 q m.J.J.L.L.J.H.L.eXC.%.I Z y A : : : ",
"O $ 3   p I V.-.;.6./ m *.9XqXG.H.2.0.@.^ ..d ..U y d.d.d.d.d.d.g.g.g.g.s.s.s.g.p.p.J > q m.H.J.eXL.iXeXv.U ~ ..X...U.w A E w : ",
"O 4 3 0 d 0.6.C.C.H.9.:.0.G.J.G.G.:.@.W j d v q P v J d.d.d.d.d.d.f.f.g.g.s.p.p.p.J 8 % m.A.J.eXeXeX' - i l.Z.B.7.~ %Xi T > q { ",
"  a 8 c q A.C.0.G.rXG.1.#.q.qXG.1.*.@.$.;.7.S = p U F d.i.d.d.p.g.s.g.g.g.i.s.i.i.z q W N.H.eXJ.=X$.A E 7.w.w.;.7.^ B.$Xh : w Y ",
"& a p r q &X0.0.! s j @.w.9XqX8X;.^ ;.H.C.w.$XS h I z a.d.d.p.p.p.p.i.g.s.s.s.s.s.% % 2.V.L.J.H.q.^ ^ -./ -.4.E S E 8.$X7.q % 0 ",
"O O 9 w h C.G.w.*.-.$.:.J.J.9Xt.C.*.! $.C.$X-.7.v 8 z J i.i.i.i.i.d.i.i.i.s.i.i.J $ 8 2.A.;.2.9.M./ $.S S V A ^ $.%Xb.Z.%X7.S e ",
"3   1 9 I 8X9XC.#.#.3.K.G.9XiX$Xq.M.0.! j A -.c.X.p e i.i.i.i.i.i.i.i.i.i.i.i.i.J # d >.p v Q a > ' $.D D / / w.9XwXH.wX&X&Xv 0 ",
"6 O & I 0.9XiXiXqXqXJ.t.r.K.G.8X=X9XJ.e.$.-.c.$Xc.z 8 z z 9 9 4 a % O O & &     # % h y S W S i uX! M.G.F.G.9XrXrXeXeXyXwX&X^ 0 ",
"2 3   +.C.rXqXiXG.3.e.1.s $.*.$.;.w.t.qXgXxX0X$Xc.S 8               X   & % # w e < p *.-.^ D w.uXqX9.J.J.J.8Xq.D.L.eXeXyX8Xn.8 ",
"C C C e.C.8XG.t.e.+.r.1.e.$.@.D k / e.w.9XgXgX=Xc.P @X6XO.O.o.o.| O   t T T Y H Y E h ^ W S q q.uXiXJ.D.&.#.1.F.L.J.J.8X&XH.C.I ",
"C C H w.B.C.3.e.#.r.q.#.1.#.M / ^ -.:.1.r.t.0X=Xc.0.2Xo.O.k.O.~ P y @ C 6 e 9 H > i Z W < S 2.9XiXuXiXL.K.3.#.+.2.D.D.F.A.V.V.>.",
"GXHXHX0XM.9.3.+.&.1.C.r.t.q.t.1.-.' ;.$.:.w.w.$X7.-.^ R E P E u 9 9 ; 9 Z r A Y R E e S ! 0.9.G.G.G.:.#.+.3.K.S.+.%.D.N.A.M.V.b.",
"GXJXGXpXq.m.q.+.M $.k k m $./ k D $.6.! @.w.6.B.7.0.W F P R T i y 1 9 u 9 9 e F t Z y h m.C.8.1.:.$.s - M 3.2.&.%.+.S.S.V.N.m.B.",
"JXGXGXw.n.M.N.3.:.= ! ;.8.A.C.$X^ j w.k m 1.w.6.7.1.h y e i i y e i : w r r w t F F u ~ B.2.2.g s s s #.#.&.&.+.+.&.2.l.m.V.N.Z.",
"GXHXHXHX0.q.M.N.r.3.w.t.t.q.t.w.w.qXt.C.:.2.6.7.6.6.0 : e e 4 8 a z 9 9 u 9 1 3 4 1 T 0 ,.G.#.+.= @.#.#.+.k +.+.S.S.S.S.m.V.V.V.",
"7XHXHXHX,.q.9.F.D.q.0.1.$.$.u.$.t.y.w.w.2.M.;.;.#.^ : r 9 e $ 8 P y F 9 e $ 8 9 < p r q >.S.+.M f $.u.r.r.r.F.K.F.S.N.m.S.N.N.B.",
"W.HXHXHX*X8.q.N.D.D.q.w.1.:.e.t.y.1.7.6.V.:.;.;.> > : 8 8 9 > % a 9 4 # O O P P ..  8 @X..2.+.n k $.3.r.K.K.F.J.F.F.F.m.m.N.n.B.",
"7XFXHXHXHX>.8.N.J.D.J.G.9XG.t.y.e.7.w.w.=.*.>.h a $ $ 0 8 $ O O + 9 9 R e r t F F z a O.8 ' 2.+.j &.2.9.3.D.F.F.F.S.N.F.N.F.V.b.",
"JXGXHXHXHX7.;.,.N.F.G.G.G.G.r.r.1.w.+X-.-.;.-.a % % $ 8 p R | r Y # : e ( A ..z 9 8 | 8 x.I %.2.*.:.1.2.2.D.D.D.F.F.H.F.H.A.n.v.",
"SXGXHXHXHX4X' %.! %.5.0.:.:.q.1.$.6.$X-.-.-.` #XaX5X#XT P 1 1 1 T T z P 4 e P ` t F 4 $ R % v %.,.,.2.2.3.D.F.F.F.L.H.F.H.V.b.<.",
"SXSXFXDXHXZ.=.-.! g j m M W q.&.:.*.%X-.-.-.y.` X u O $ 1 G F 9 9 e e R T e 9 z R r P $ e I % ! %.%.:.2.N.F.L.L.F.F.H.N.m.v.=.! ",
"SXSXSXHXHXv.v.;.-.! W s j s :.#.:.0.*X! ! k l & e 9 r z O O z 4 P u 1 8 G T t e w z Y t 3 y 8   B &.,.2.S.N.N.S.N.S.m.m.>.' ' =.",
"SXSXSXHXDXH.rXxXxXpX=.! W / 1.#.3.q.=X! ! ..q & 8 X . F 9 t 1 1 e u G 1 + F u P A 4 4 e u w h * & ' >.2.2.%.N ! B %.B %.! ' %.>.",
"SXDXDXNX;XA.eXuXuXgXtXtXrX=.3.e.D.C.A.7.^ hX+ t a z + # 4 z 4 t O @ G 4 F 4 4 u t t 1 3 3 8 a 4 & c ! @.! M d j g f m m N ! ! =.",
"| | nXn.V.H.L.uXrX8XwXyXtXtXtXN.K.9XwX3X-.@X9 . $ O r   3 O $ t 4 $ + 4 u F G u : e # 8 9 y R  .#X( X.v d d q j d b m m v m M %.",
"P I %XwXeXtXeXJ.H.yX&XwXyXtXzXfXxXN.wX>X@X#X# 8 $   # u 1 t O O 4 t z r w e # & 1 8 c R #XkXnXhX1X1X1XcXo.h j m v f m m f m m %.",
"6XA.uXxXxXuXrXwXA.8X,X&X;X;XwXtXsXfXtXyX+Xx.T 1 4 4 O X + 1 9 9 9 9 > : + $ 0 P ..@XkXVXBXVXkX6Xo.o.Y.Q. .p g f f f f m m n m M ",
"B.9.J.uXgXrXrXwX&XA.yX>X%XV.Z.A.;X;X;X&Xc.! c.9     9 4 $ + + O   O # y U ..+X2X6XnXnXBXBXVXvXvX#X@X#XE c U h g f m f n k m f m ",
"B.m.q.H.8XA.H.A.Z.Z.$X>X,XA.b.b.B.B.$Xc.c.%.*X-X-X$ $ O     X O e P R #X@X@X2X6XhXkXnXBXBXBXvXvX7X#X+X+X4.c I Q s g f f f f m m ",
"b.b.9.8.:.M.n.B.B.n.Z.&X<X;XZ.v.5.v.c.5.c.-.:X*XZ.-Xx.( % u z T { | o.#X@X@X1X7XkXhXkXVXSXBXVXvX7X#XX.:X+XX.` I b v s g g g f m ",
"A.&XH.8.,.5.8.m.v.b.b.Z.&X<X;XB.v.6.6.c.+X*X:X*X:XhX-X2XhXO.O.k.o.o.E.E.@X@X@X2X6XvXvXVXSXSXJXvXvX1X#XO.*X+XX.~ ~ ' Q v s g l f ",
"tXuXeXB.6.6.5.v.8.b.b.n.B.A.>X>XZ.5.7.c.c.:X:X:X5X5XjXhXkXNXhXhX-XE.k.@X@X@X1X2X6XvXnXVXBXSXVXvX6X5X5X3X+X+X#XX.4.` X.v.l.Z.<X<X",
"eXF.N.b.5.6.6.5.b.m.v.b.B.Z.A.%X*XZ.v.c.+X2X<X5XpXhXNXlXDXCXNXNXNXkXnXkX2X@X2X7X6XnXnXnXVXSXBX:X*X#XX.:X5X<Xx.X.4.] 4.x.v.;XpXzX",
"H.9.,.;.>.v.5.5.b.n.b.8.m.Z.Z.%X%X;XZ.c.c.jXkXjXzXlXCXkXDXNXCXNXmXZXZXCXNXjX2X7X7XvXVXVXSX-X4X<X3X:X5X3XU ..x.4.4.x.4.4.4.#Xv.x.",
"5.;.;.;.-.>.5.b.v.n.n.5.8.n.Z.A.&X>X>X$X$XMXlXmXNXCXNXDXDXCXCXCXAXHXAXCX<XCXNX2X6XvXVX:X-X2X<X4X3X5XjXaX*X*X*X%Xx.x.` ` ` ] ] %X",
"b.6.>.>.6.>.,.b.5.8.b.m.b.m.M.A.A.;X>X>X%XNXlXmXAXCXmXAXAXAXAXAXAXDXDXNX5XDXsX:XhXhX2X2X2XhX4XhX3XaX5X5XdX:X:X*X+X:Xc.:X>X4XzXxX",
"m.>.>.6.v.5.,.,.8.5.b.m.m.m.V.A.&X&X=X&X*XdXNXAXDXCXDXAXAXAXAXAXDXAXDX<XCXjXzXZX5X:X2X5XjX4X<XjXdXsXdXjXjXlX4X5X,XpXpXjXzXzXxXlX",
"A.m.5.>.>.>.,.b.,.5.,.m.m.m.N.V.A.&X;X;X&X*XMXDXCXMXAXZXZXZXAXAXDXAXCX,XjXjXDXNX%X+X4X4XpX4X4X<XjXaXlXkXsXzXxXlXaX4XzXxXzXlXzXpX",
"8.m.m.v.,.v.v.5.8.,.b.2.m.m.V.N.N.A.Z.A.&X%XAXDXAXAXAXNXdXZXAXAXDXAX%XdXjXDXsXpXjX+X5XjXjXhXsXjXsXjXaXzXjXsXsXsXdXpXzXlXlXzX<XjX",
";.;.6.5.,.5.5.>.>.>.>.,.m.m.m.m.M.V.Z.;X=X%X3XAXMXBXmXdXmXNXZXAXAXNXaX3XCX,XsXlXjX:X*X4XjX4XpXjXsXlXlXjXpXsXfX4X4X4XpXpXsX<X,X,X",
"/ ! *.;.>.>.>.=.=.=.<.,.,.S.m.N.m.m.n.V.=X=X$XmXMXmXfXkXMXNXmXAXMX3X+XmX*XlXZXZXjX<Xx.jXjX4X<XjX4XlXlXsX>XsXpX,X<X<X>X,X<X;X,X;X",
"m W ^ ! =.;.>.=.=.%.=.=.,.2.S.m.m.m.M.V.&X&X=X*XnXaXdXaXNXdXlXmXmX+XdX,XZXMXMXlXjX3X] jX4X4X4XzXzXzXzX4XpXpXpXpX*X,X%X<X*X>X<XpX",
">XI ! ! %.=.%.=.%.=.=.=.>.<.,.,.m.N.V.A.&X8X=X$XsX3X3XkXdXdXmXkXaX*XsXZXNXNXMXkXkXjXX.*X4XsX4XjXzXpXpXyXpXsX>X:X*X,Xc.>X;X;XpXpX"
};
