/* XPM */
static char *result[] = {
/* columns rows colors chars-per-pixel */
"64 64 7 1 ",
"  c #BC9862",
". c #9F844D",
"X c #B4905A",
"o c #735E39",
"O c #695433",
"+ c #7C623E",
"@ c #4C3D26",
/* pixels */
"    ................        XXXX....                        ....",
"    ................        XXXX....                        ....",
"    ................        XXXX....                        ....",
"    ................        XXXX....                        ....",
"        XXXXooooXXXXXXXX....................XXXX....XXXX    ....",
"        XXXXooooXXXXXXXX....................XXXX....XXXX    ....",
"        XXXXooooXXXXXXXX....................XXXX....XXXX    ....",
"        XXXXooooXXXXXXXX....................XXXX....XXXX    ....",
"        ................XXXXXXXXoooo        XXXX            ....",
"        ................XXXXXXXXoooo        XXXX            ....",
"        ................XXXXXXXXoooo        XXXX            ....",
"        ................XXXXXXXXoooo        XXXX            ....",
"OOOOOOOOOOOOooooooooooooooooooooooooooooOOOOOOOOOOOOOOOOoooooooo",
"OOOOOOOOOOOOooooooooooooooooooooooooooooOOOOOOOOOOOOOOOOoooooooo",
"OOOOOOOOOOOOooooooooooooooooooooooooooooOOOOOOOOOOOOOOOOoooooooo",
"OOOOOOOOOOOOooooooooooooooooooooooooooooOOOOOOOOOOOOOOOOoooooooo",
"    ................        ....    ........ooooXXXXXXXXXXXX    ",
"    ................        ....    ........ooooXXXXXXXXXXXX    ",
"    ................        ....    ........ooooXXXXXXXXXXXX    ",
"    ................        ....    ........ooooXXXXXXXXXXXX    ",
"........ooooXXXXXXXXXXXX    ....XXXXXXXXXXXXXXXX................",
"........ooooXXXXXXXXXXXX    ....XXXXXXXXXXXXXXXX................",
"........ooooXXXXXXXXXXXX    ....XXXXXXXXXXXXXXXX................",
"........ooooXXXXXXXXXXXX    ....XXXXXXXXXXXXXXXX................",
"            XXXX            ............oooo                    ",
"            XXXX            ............oooo                    ",
"            XXXX            ............oooo                    ",
"            XXXX            ............oooo                    ",
"ooooooooOOOOOOOOOOOOOOOOOOOOooooooooooooOOOOOOOOOOOOOOOOoooooooo",
"ooooooooOOOOOOOOOOOOOOOOOOOOooooooooooooOOOOOOOOOOOOOOOOoooooooo",
"ooooooooOOOOOOOOOOOOOOOOOOOOooooooooooooOOOOOOOOOOOOOOOOoooooooo",
"ooooooooOOOOOOOOOOOOOOOOOOOOooooooooooooOOOOOOOOOOOOOOOOoooooooo",
"                    oooo....        XXXXXXXXXXXX            ....",
"                    oooo....        XXXXXXXXXXXX            ....",
"                    oooo....        XXXXXXXXXXXX            ....",
"                    oooo....        XXXXXXXXXXXX            ....",
"....................    XXXXXXXX............oooo    ............",
"....................    XXXXXXXX............oooo    ............",
"....................    XXXXXXXX............oooo    ............",
"....................    XXXXXXXX............oooo    ............",
"    XXXXXXXXXXXX        ................XXXXXXXXXXXXXXXXXXXX....",
"    XXXXXXXXXXXX        ................XXXXXXXXXXXXXXXXXXXX....",
"    XXXXXXXXXXXX        ................XXXXXXXXXXXXXXXXXXXX....",
"    XXXXXXXXXXXX        ................XXXXXXXXXXXXXXXXXXXX....",
"ooooOOOOooooooooOOOOOOOOOOOOooooooooooooooooooooOOOOOOOOOOOOoooo",
"ooooOOOOooooooooOOOOOOOOOOOOooooooooooooooooooooOOOOOOOOOOOOoooo",
"ooooOOOOooooooooOOOOOOOOOOOOooooooooooooooooooooOOOOOOOOOOOOoooo",
"ooooOOOOooooooooOOOOOOOOOOOOooooooooooooooooooooOOOOOOOOOOOOoooo",
"                    ....    ........oooo........XXXX            ",
"                    ....    ........oooo........XXXX            ",
"                    ....    ........oooo........XXXX            ",
"                    ....    ........oooo........XXXX            ",
"XXXX....oooo                ....    XXXXXXXX................XXXX",
"XXXX....oooo                ....    XXXXXXXX................XXXX",
"XXXX....oooo                ....    XXXXXXXX................XXXX",
"XXXX....oooo                ....    XXXXXXXX................XXXX",
"        ............        ....        ....XXXX                ",
"        ............        ....        ....XXXX                ",
"        ............        ....        ....XXXX                ",
"        ............        ....        ....XXXX                ",
"oooooooooooo++++OOOOOOOO++++OOOOooooooooooooOOOO@@@@OOOOOOOOoooo",
"oooooooooooo++++OOOOOOOO++++OOOOooooooooooooOOOO@@@@OOOOOOOOoooo",
"oooooooooooo++++OOOOOOOO++++OOOOooooooooooooOOOO@@@@OOOOOOOOoooo",
"oooooooooooo++++OOOOOOOO++++OOOOooooooooooooOOOO@@@@OOOOOOOOoooo"
};
